<svg xmlns="http://www.w3.org/2000/svg" width="24" height="24" viewBox="0 0 24 24" fill="none" aria-hidden="true">
  <path d="M4 8c1.3-1.3 2.7-1.3 4 0s2.7 1.3 4 0 2.7-1.3 4 0 2.7 1.3 4 0" stroke="#1447E6" stroke-width="2" stroke-linecap="round"/>
  <path d="M4 13c1.3-1.3 2.7-1.3 4 0s2.7 1.3 4 0 2.7-1.3 4 0 2.7 1.3 4 0" stroke="#1447E6" stroke-width="2" stroke-linecap="round" opacity=".8"/>
  <path d="M4 18c1.3-1.3 2.7-1.3 4 0s2.7 1.3 4 0 2.7-1.3 4 0 2.7 1.3 4 0" stroke="#1447E6" stroke-width="2" stroke-linecap="round" opacity=".6"/>
</svg>
